{"title":"Beastie Boys - Ill Communication [24-bit 44.1kHz flac] MC Lurken","uid":11761481,"size":764041527,"categoryP":"audio","categoryS":"flac","magnet":"?xt=urn:btih:cdcf2738e7c7503c35eac1ce8523147a4fb1ad02&amp;dn=Beastie+Boys+-+Ill+Communication+%5B24-bit+44.1kHz+flac%5D+MC+Lurken&amp;tr=udp%3A%2F%2Ftracker.openbittorrent.com%3A80&amp;tr=udp%3A%2F%2Fopen.demonii.com%3A1337&amp;tr=udp%3A%2F%2Ftracker.coppersurfer.tk%3A6969&amp;tr=udp%3A%2F%2Fexodus.desync.com%3A6969","seeders":2,"leechers":4,"uploader":"beavis39","files":28,"time":1426602385,"description":"Beastie Boys - Ill Communication [24-bit 44.1kHz flac] MC Lurken\n\n\n\n1 - Sure Shot\n2 - Tough Guy\n3 - B-Boys Makin' With The Freak Freak\n4 - Bobo On The Corner\n5 - Root Down\n6 - Sabotage\n7 - Get It Together\n8 - Sabrosa\n9 - The Update\n10 - Futterman's Rule\n11 - Alright Hear This\n12 - Eugene's Lament\n13 - Flute Loop\n14 - Do It\n15 - Ricky's Theme\n16 - Heart Attack Man\n17 - The Scoop\n18 - Shambala\n19 - Bodhisattva Vow\n20 - Transitions\n\nJapanese Bonus Tracks:\n21 - Dope Little Song\n22 - Resolution Time\n23 - Mullet Head\n24 - The Vibes\n\n\n\nfoobar2000 1.3.7 / Dynamic Range Meter 1.1.1\nlog date: 2015-03-17 04:13:14\n\n--------------------------------------------------------------------------------\nAnalyzed: Beastie Boys / Ill Communication\n--------------------------------------------------------------------------------\n\nDR         Peak         RMS     Duration Track\n--------------------------------------------------------------------------------\nDR9       -0.03 dB   -10.56 dB      3:20 01-Sure Shot\nDR9       -0.03 dB   -10.18 dB      0:58 02-Tough Guy\nDR9       -0.03 dB   -11.00 dB      3:53 03-B-Boys Makin' With The Freak Freak\nDR10      -0.03 dB   -10.43 dB      1:13 04-Bobo On The Corner\nDR9       -0.03 dB    -9.58 dB      3:32 05-Root Down\nDR8       -0.03 dB    -9.81 dB      2:58 06-Sabotage\nDR10      -0.03 dB   -11.76 dB      4:06 07-Get It Together\nDR9       -0.03 dB   -12.95 dB      3:30 08-Sabrosa\nDR11       0.00 dB   -12.29 dB      3:16 09-The Update\nDR8       -0.03 dB    -9.72 dB      3:42 10-Futterman's Rule\nDR9       -0.03 dB   -11.04 dB      3:07 11-Alright Hear This\nDR10       0.00 dB   -11.99 dB      2:13 12-Eugene's Lament\nDR9       -0.03 dB   -11.69 dB      1:55 13-Flute Loop\nDR8        0.00 dB    -9.53 dB      3:16 14-Do It\nDR9       -0.03 dB   -11.57 dB      3:44 15-Ricky's Theme\nDR9        0.00 dB   -10.97 dB      2:15 16-Heart Attack Man\nDR8        0.00 dB    -9.46 dB      3:36 17-The Scoop\nDR8       -0.03 dB   -11.86 dB      3:41 18-Shambala\nDR9       -0.03 dB   -11.64 dB      3:08 19-Bodhisattva Vow\nDR13       0.00 dB   -16.28 dB      2:32 20-Transitions\nDR11       0.00 dB   -13.02 dB      1:51 21-Dope Little Song\nDR8        0.00 dB    -9.63 dB      2:49 22-Resolution Time\nDR6       -1.44 dB    -8.72 dB      2:52 23-Mullet Head\nDR9        0.00 dB   -10.68 dB      3:07 24-The Vibes\n--------------------------------------------------------------------------------\n\nNumber of tracks:  24\nOfficial DR value: DR9\n\nSamplerate:        44100 Hz\nChannels:          2\nBits per sample:   24\nBitrate:           1506 kbps\nCodec:             FLAC","torrent":{"xt":"urn:btih:cdcf2738e7c7503c35eac1ce8523147a4fb1ad02","amp;dn":"Beastie+Boys+-+Ill+Communication+%5B24-bit+44.1kHz+flac%5D+MC+Lurken","amp;tr":["udp%3A%2F%2Ftracker.openbittorrent.com%3A80","udp%3A%2F%2Fopen.demonii.com%3A1337","udp%3A%2F%2Ftracker.coppersurfer.tk%3A6969","udp%3A%2F%2Fexodus.desync.com%3A6969"],"infoHash":"cdcf2738e7c7503c35eac1ce8523147a4fb1ad02","infoHashBuffer":{"type":"Buffer","data":[205,207,39,56,231,199,80,60,53,234,193,206,133,35,20,122,79,177,173,2]},"announce":[],"urlList":[]}}